<?xml version="1.0" encoding="UTF-8" standalone="no"?><svg xmlns="http://www.w3.org/2000/svg" xmlns:xlink="http://www.w3.org/1999/xlink" contentScriptType="application/ecmascript" contentStyleType="text/css" height="229px" preserveAspectRatio="none" style="width:1161px;height:229px;background:#FFFFFF;" version="1.1" viewBox="0 0 1161 229" width="1161px" zoomAndPan="magnify"><defs/><g><!--MD5=[eefe19875ce85a181dc497f473aaaa24]
cluster CapteurszRossYpro--><polygon fill="#FFFFFF" points="90,6,237,6,244,28.4883,1052,28.4883,1052,222,90,222,90,6" style="stroke:#000000;stroke-width:1.5;"/><line style="stroke:#000000;stroke-width:1.5;" x1="90" x2="244" y1="28.4883" y2="28.4883"/><text fill="#000000" font-family="sans-serif" font-size="14" font-weight="bold" lengthAdjust="spacing" textLength="141" x="94" y="21.5352">CapteurszRossYpro</text><ellipse cx="882.2673" cy="173.9535" fill="#FEFECE" rx="147.7673" ry="31.9535" style="stroke:#A80036;stroke-width:1.5;"/><text fill="#000000" font-family="sans-serif" font-size="14" lengthAdjust="spacing" textLength="226" x="769.2673" y="169.0003">Envoyer les alarmes par courriels</text><text fill="#000000" font-family="sans-serif" font-size="14" lengthAdjust="spacing" textLength="50" x="857.2673" y="185.4886">ou SMS</text><ellipse cx="882.7453" cy="74.1491" fill="#FEFECE" rx="153.7453" ry="33.1491" style="stroke:#A80036;stroke-width:1.5;"/><text fill="#000000" font-family="sans-serif" font-size="14" lengthAdjust="spacing" textLength="278" x="743.7453" y="77.4401">Envoyer les alarmes par réseau cellulaire</text><ellipse cx="206.6289" cy="125.0258" fill="#FEFECE" rx="100.6289" ry="22.5258" style="stroke:#A80036;stroke-width:1.5;"/><text fill="#000000" font-family="sans-serif" font-size="14" lengthAdjust="spacing" textLength="165" x="124.1289" y="128.3168">Configurer vos capteurs</text><ellipse cx="518.0663" cy="173.2133" fill="#FEFECE" rx="119.0663" ry="26.2133" style="stroke:#A80036;stroke-width:1.5;"/><text fill="#000000" font-family="sans-serif" font-size="14" lengthAdjust="spacing" textLength="205" x="415.5663" y="176.5043">Utiliser le réseau WIFI existant</text><ellipse cx="517.8619" cy="76.0724" fill="#FEFECE" rx="150.8619" ry="32.5724" style="stroke:#A80036;stroke-width:1.5;"/><text fill="#000000" font-family="sans-serif" font-size="14" lengthAdjust="spacing" textLength="272" x="381.8619" y="79.3634">Utiliser le réseau spécifique au capteurs</text><!--MD5=[0ba5ee7700168656dc1b457c6fe9fdac]
entity Client--><ellipse cx="26" cy="95.5" fill="#FEFECE" rx="8" ry="8" style="stroke:#A80036;stroke-width:1.5;"/><path d="M26,103.5 L26,130.5 M13,111.5 L39,111.5 M26,130.5 L13,145.5 M26,130.5 L39,145.5 " fill="none" style="stroke:#A80036;stroke-width:1.5;"/><text fill="#000000" font-family="sans-serif" font-size="14" lengthAdjust="spacing" textLength="40" x="6" y="161.5352">Client</text><!--MD5=[68f82070d0aec4ff4b64d9b1102926da]
entity E--><ellipse cx="1125" cy="94.5" fill="#FEFECE" rx="8" ry="8" style="stroke:#A80036;stroke-width:1.5;"/><path d="M1125,102.5 L1125,129.5 M1112,110.5 L1138,110.5 M1125,129.5 L1112,144.5 M1125,129.5 L1138,144.5 " fill="none" style="stroke:#A80036;stroke-width:1.5;"/><text fill="#000000" font-family="sans-serif" font-size="14" lengthAdjust="spacing" textLength="58" x="1096" y="160.5352">Employé</text><!--MD5=[d2cbd26ee5118ec96711ff729ad6ccca]
link Client to Configure--><path d="M46.1,125 C59.92,125 79.81,125 100.87,125 " fill="none" id="Client-to-Configure" style="stroke:#A80036;stroke-width:1.0;"/><polygon fill="#A80036" points="105.96,125,96.96,121,100.96,125,96.96,129,105.96,125" style="stroke:#A80036;stroke-width:1.0;"/><!--MD5=[939347b87e6214e75eae6f22b6f40ffc]
link EMAIL to E--><path d="M989.69,151.92 C1026.26,144.32 1064.59,136.35 1090.9,130.88 " fill="none" id="EMAIL-to-E" style="stroke:#A80036;stroke-width:1.0;"/><polygon fill="#A80036" points="1095.99,129.82,1086.3648,127.7329,1091.0944,130.8363,1087.991,135.5659,1095.99,129.82" style="stroke:#A80036;stroke-width:1.0;"/><!--MD5=[e4a332f4bdc9dd43bfa55943cfe24539]
link GSM to E--><path d="M993.54,96.88 C1028.79,104.21 1065.22,111.78 1090.6,117.06 " fill="none" id="GSM-to-E" style="stroke:#A80036;stroke-width:1.0;"/><polygon fill="#A80036" points="1095.52,118.08,1087.521,112.3341,1090.6244,117.0637,1085.8948,120.1671,1095.52,118.08" style="stroke:#A80036;stroke-width:1.0;"/><!--MD5=[322234c96812ab1dfc5db0557a86c655]
link Configure to WIFI--><path d="M289.63,137.74 C328.26,143.73 374.71,150.93 415.52,157.26 " fill="none" id="Configure-to-WIFI" style="stroke:#A80036;stroke-width:1.0;"/><polygon fill="#A80036" points="420.47,158.03,412.1794,152.7134,415.5276,157.2729,410.9681,160.6212,420.47,158.03" style="stroke:#A80036;stroke-width:1.0;"/><!--MD5=[76f4ab69a542822770bde06599846410]
link Configure to ESPNOW--><path d="M289.22,112.06 C320.29,107.14 356.45,101.42 390.69,96 " fill="none" id="Configure-to-ESPNOW" style="stroke:#A80036;stroke-width:1.0;"/><polygon fill="#A80036" points="395.73,95.2,386.2136,92.6625,390.792,95.9849,387.4696,100.5633,395.73,95.2" style="stroke:#A80036;stroke-width:1.0;"/><!--MD5=[476d337d1c2588bd9685d92cc2e20807]
link WIFI to EMAIL--><path d="M637.19,173.33 C666.49,173.41 698.3,173.49 728.98,173.58 " fill="none" id="WIFI-to-EMAIL" style="stroke:#A80036;stroke-width:1.0;"/><polygon fill="#A80036" points="734.29,173.59,725.3015,169.5643,729.29,173.5757,725.2786,177.5643,734.29,173.59" style="stroke:#A80036;stroke-width:1.0;"/><!--MD5=[1a82a7458488f8b27bc965e145b027ae]
link ESPNOW to GSM--><path d="M669.06,75.17 C687.13,75.07 705.63,74.97 723.8,74.87 " fill="none" id="ESPNOW-to-GSM" style="stroke:#A80036;stroke-width:1.0;"/><polygon fill="#A80036" points="728.92,74.84,719.8973,70.8915,723.9201,74.8686,719.943,78.8914,728.92,74.84" style="stroke:#A80036;stroke-width:1.0;"/><!--MD5=[e1fe6fed4bb3d4bff2ff4c1b632f0e4b]
@startuml usecase
skinparam style strictuml
left to right direction

Actor Client 
package CapteurszRossYpro {
(Envoyer les alarmes par courriels\nou SMS) as EMAIL
(Envoyer les alarmes par réseau cellulaire) as GSM
(Configurer vos capteurs) as Configure
(Utiliser le réseau WIFI existant) as WIFI
(Utiliser le réseau spécifique au capteurs) as ESPNOW
}
actor Employé as E

Client - -> Configure
EMAIL - -> E
GSM - -> E
Configure - -> WIFI
Configure - -> ESPNOW
WIFI - -> EMAIL
ESPNOW - -> GSM

@enduml

PlantUML version 1.2022.0(Tue Jan 11 11:16:42 EST 2022)
(GPL source distribution)
Java Runtime: OpenJDK Runtime Environment
JVM: OpenJDK 64-Bit Server VM
Default Encoding: UTF-8
Language: fr
Country: CA
--></g></svg>