<?xml version="1.0" encoding="UTF-8" standalone="no"?><svg xmlns="http://www.w3.org/2000/svg" xmlns:xlink="http://www.w3.org/1999/xlink" contentScriptType="application/ecmascript" contentStyleType="text/css" height="234px" preserveAspectRatio="none" style="width:499px;height:234px;background:#FFFFFF;" version="1.1" viewBox="0 0 499 234" width="499px" zoomAndPan="magnify"><defs><filter height="300%" id="fzoitseik726l" width="300%" x="-1" y="-1"><feGaussianBlur result="blurOut" stdDeviation="2.0"/><feColorMatrix in="blurOut" result="blurOut2" type="matrix" values="0 0 0 0 0 0 0 0 0 0 0 0 0 0 0 0 0 0 .4 0"/><feOffset dx="4.0" dy="4.0" in="blurOut2" result="blurOut3"/><feBlend in="SourceGraphic" in2="blurOut3" mode="normal"/></filter></defs><g><!--MD5=[178a4b68636e04c18c9cc439d765be55]
entity Capteur1--><ellipse cx="38" cy="23" fill="#FEFECE" filter="url(#fzoitseik726l)" rx="12" ry="12" style="stroke:#A80036;stroke-width:1.5;"/><polygon fill="#A80036" points="34,11,40,6,38,11,40,16,34,11" style="stroke:#A80036;stroke-width:1.0;"/><text fill="#000000" font-family="sans-serif" font-size="14" lengthAdjust="spacing" textLength="64" x="6" y="52.5352">Capteur1</text><!--MD5=[1de03d4435405bebeaef48d43ed77e13]
entity CapteurX--><ellipse cx="259" cy="23" fill="#FEFECE" filter="url(#fzoitseik726l)" rx="12" ry="12" style="stroke:#A80036;stroke-width:1.5;"/><polygon fill="#A80036" points="255,11,261,6,259,11,261,16,255,11" style="stroke:#A80036;stroke-width:1.0;"/><text fill="#000000" font-family="sans-serif" font-size="14" lengthAdjust="spacing" textLength="64" x="227" y="52.5352">CapteurX</text><!--MD5=[bb282e8b18cbcce1d6e3acfc0794189f]
entity WifiRouter--><rect fill="#FEFECE" filter="url(#fzoitseik726l)" height="22.4883" style="stroke:#000000;stroke-width:1.5;" width="91" x="102.5" y="176.5"/><text fill="#000000" font-family="sans-serif" font-size="14" lengthAdjust="spacing" textLength="71" x="112.5" y="193.0352">WifiRouter</text><!--MD5=[9eb86c2b3d925a16ba1bdada40016c70]
entity Internet--><path d="M238.3988,174.3259 C240.9638,168.2893 244.934,167.7086 249.7765,171.7565 C253.2724,166.9522 258.434,165.8207 261.4051,172.2975 C263.2201,166.9323 267.7807,166.707 271.2423,170.5356 C274.801,166.5078 280.5415,166.1781 282.4392,172.3576 C285.8776,167.5845 290.2059,166.4358 293.7597,172.234 C298.2738,166.7606 301.7886,167.3011 305.0842,173.4238 C314.2122,176.0851 317.5899,180.4456 312.4225,189.5942 C318.1656,196.558 313.8882,203.8792 305.9515,205.1537 C303.8116,210.5935 299.8219,212.1123 295.1207,208.0835 C291.9415,213.6922 287.5858,214.4254 283.0572,209.6513 C281.5309,215.775 277.476,218.4758 271.7206,214.3113 C266.5438,218.3499 262.8058,216.1187 261.6306,210.24 C256.2901,214.6715 251.7708,214.2882 248.9358,207.424 C244.8968,211.0061 240.7822,209.7207 239.1123,204.7142 C230.5253,201.0586 229.7721,194.1957 235.9753,187.7975 C229.7384,181.9909 230.2324,177.5415 238.3988,174.3259 " fill="#FEFECE" filter="url(#fzoitseik726l)" style="stroke:#000000;stroke-width:1.5;"/><text fill="#000000" font-family="sans-serif" font-size="14" lengthAdjust="spacing" textLength="54" x="244" y="193.0352">Internet</text><!--MD5=[0ba5ee7700168656dc1b457c6fe9fdac]
entity Client--><ellipse cx="472" cy="156.5" fill="#FEFECE" filter="url(#fzoitseik726l)" rx="8" ry="8" style="stroke:#A80036;stroke-width:1.5;"/><path d="M472,164.5 L472,191.5 M459,172.5 L485,172.5 M472,191.5 L459,206.5 M472,191.5 L485,206.5 " fill="none" filter="url(#fzoitseik726l)" style="stroke:#A80036;stroke-width:1.5;"/><text fill="#000000" font-family="sans-serif" font-size="14" lengthAdjust="spacing" textLength="40" x="452" y="225.5352">Client</text><!--MD5=[7ad4e43a7835a62e1a879fcc2ab0a6a4]
link Capteur1 to WifiRouter--><path d="M30.99,55.17 C26.94,73.18 24.48,98.18 35,117 C51.03,145.67 84.27,163.97 110.57,174.55 " fill="none" id="Capteur1-to-WifiRouter" style="stroke:#A80036;stroke-width:1.0;"/><polygon fill="#A80036" points="115.4,176.44,108.4845,169.4274,110.7459,174.6126,105.5607,176.874,115.4,176.44" style="stroke:#A80036;stroke-width:1.0;"/><text fill="#000000" font-family="sans-serif" font-size="13" lengthAdjust="spacing" textLength="179" x="36" y="98.5684">Connecté à votre réseau Wifi</text><text fill="#000000" font-family="sans-serif" font-size="13" lengthAdjust="spacing" textLength="166" x="42.5" y="113.8789">Envoye alarme par courriel</text><!--MD5=[e763dcf8c824cb190ecb32c8af05b2b2]
link CapteurX to WifiRouter--><path d="M251.04,55.25 C244.32,73.07 233.61,97.79 220,117 C204.39,139.03 181.2,159.92 165.39,172.94 " fill="none" id="CapteurX-to-WifiRouter" style="stroke:#A80036;stroke-width:1.0;"/><polygon fill="#A80036" points="161.13,176.4,170.6327,173.812,165.0049,173.24,165.5768,167.6122,161.13,176.4" style="stroke:#A80036;stroke-width:1.0;"/><text fill="#000000" font-family="sans-serif" font-size="13" lengthAdjust="spacing" textLength="179" x="238" y="98.5684">Connecté à votre réseau Wifi</text><text fill="#000000" font-family="sans-serif" font-size="13" lengthAdjust="spacing" textLength="166" x="244.5" y="113.8789">Envoye alarme par courriel</text><!--MD5=[d399f724ec74697f9e9a16f755b731c4]
link WifiRouter to Internet--><path d="M193.64,187.5 C203.68,187.5 213.72,187.5 223.75,187.5 " fill="none" id="WifiRouter-to-Internet" style="stroke:#A80036;stroke-width:1.0;"/><polygon fill="#A80036" points="229,187.5,220,183.5,224,187.5,220,191.5,229,187.5" style="stroke:#A80036;stroke-width:1.0;"/><!--MD5=[476ac5bde6d299cc30c0fd288b4fb977]
link Internet to Client--><path d="M313.14,187.5 C353.57,187.5 413.28,187.5 446.8,187.5 " fill="none" id="Internet-to-Client" style="stroke:#A80036;stroke-width:1.0;"/><polygon fill="#A80036" points="451.95,187.5,442.95,183.5,446.95,187.5,442.95,191.5,451.95,187.5" style="stroke:#A80036;stroke-width:1.0;"/><text fill="#000000" font-family="sans-serif" font-size="13" lengthAdjust="spacing" textLength="97" x="334" y="166.0684">courriel ou SMS</text><text fill="#000000" font-family="sans-serif" font-size="13" lengthAdjust="spacing" textLength="102" x="331.5" y="181.3789">de votre capteur</text><!--MD5=[3d967fbaa0608bf3e18038d6e22ed276]
@startuml autonome
control Capteur1
control CapteurX
card  WifiRouter
cloud Internet
Actor Client
Capteur1 - -> WifiRouter: Connecté à votre réseau Wifi\nEnvoye alarme par courriel
CapteurX - -> WifiRouter: Connecté à votre réseau Wifi\nEnvoye alarme par courriel
WifiRouter -> Internet
Internet -> Client: courriel ou SMS\nde votre capteur
@enduml

PlantUML version 1.2022.0(Tue Jan 11 11:16:42 EST 2022)
(GPL source distribution)
Java Runtime: Java(TM) SE Runtime Environment
JVM: Java HotSpot(TM) 64-Bit Server VM
Default Encoding: UTF-8
Language: fr
Country: CA
--></g></svg>