<?xml version="1.0" encoding="UTF-8" standalone="no"?><svg xmlns="http://www.w3.org/2000/svg" xmlns:xlink="http://www.w3.org/1999/xlink" contentScriptType="application/ecmascript" contentStyleType="text/css" height="242px" preserveAspectRatio="none" style="width:643px;height:242px;background:#FFFFFF;" version="1.1" viewBox="0 0 643 242" width="643px" zoomAndPan="magnify"><defs><filter height="300%" id="fxi27nn0p9192" width="300%" x="-1" y="-1"><feGaussianBlur result="blurOut" stdDeviation="2.0"/><feColorMatrix in="blurOut" result="blurOut2" type="matrix" values="0 0 0 0 0 0 0 0 0 0 0 0 0 0 0 0 0 0 .4 0"/><feOffset dx="4.0" dy="4.0" in="blurOut2" result="blurOut3"/><feBlend in="SourceGraphic" in2="blurOut3" mode="normal"/></filter></defs><g><!--MD5=[178a4b68636e04c18c9cc439d765be55]
entity Capteur1--><ellipse cx="38" cy="204.7422" fill="#FEFECE" filter="url(#fxi27nn0p9192)" rx="12" ry="12" style="stroke:#A80036;stroke-width:1.5;"/><polygon fill="#A80036" points="34,192.7422,40,187.7422,38,192.7422,40,197.7422,34,192.7422" style="stroke:#A80036;stroke-width:1.0;"/><text fill="#000000" font-family="sans-serif" font-size="14" lengthAdjust="spacing" textLength="64" x="6" y="234.2773">Capteur1</text><!--MD5=[1de03d4435405bebeaef48d43ed77e13]
entity CapteurX--><ellipse cx="219" cy="204.7422" fill="#FEFECE" filter="url(#fxi27nn0p9192)" rx="12" ry="12" style="stroke:#A80036;stroke-width:1.5;"/><polygon fill="#A80036" points="215,192.7422,221,187.7422,219,192.7422,221,197.7422,215,192.7422" style="stroke:#A80036;stroke-width:1.0;"/><text fill="#000000" font-family="sans-serif" font-size="14" lengthAdjust="spacing" textLength="64" x="187" y="234.2773">CapteurX</text><!--MD5=[6387a1f68b0613af4941d5606c77def3]
entity ModuleAffichage--><ellipse cx="400" cy="204.7422" fill="#FEFECE" filter="url(#fxi27nn0p9192)" rx="12" ry="12" style="stroke:#A80036;stroke-width:1.5;"/><polygon fill="#A80036" points="396,192.7422,402,187.7422,400,192.7422,402,197.7422,396,192.7422" style="stroke:#A80036;stroke-width:1.0;"/><text fill="#000000" font-family="sans-serif" font-size="14" lengthAdjust="spacing" textLength="116" x="342" y="234.2773">ModuleAffichage</text><!--MD5=[bb282e8b18cbcce1d6e3acfc0794189f]
entity WifiRouter--><rect fill="#FEFECE" filter="url(#fxi27nn0p9192)" height="22.4883" style="stroke:#000000;stroke-width:1.5;" width="91" x="173.5" y="45.2422"/><text fill="#000000" font-family="sans-serif" font-size="14" lengthAdjust="spacing" textLength="71" x="183.5" y="61.7773">WifiRouter</text><!--MD5=[9eb86c2b3d925a16ba1bdada40016c70]
entity Internet--><path d="M309.3988,43.0681 C311.9638,37.0315 315.934,36.4508 320.7765,40.4987 C324.2724,35.6943 329.434,34.5629 332.4051,41.0397 C334.2201,35.6745 338.7807,35.4492 342.2423,39.2778 C345.801,35.25 351.5415,34.9202 353.4392,41.0998 C356.8776,36.3267 361.2059,35.178 364.7597,40.9761 C369.2738,35.5028 372.7886,36.0433 376.0842,42.166 C385.2122,44.8273 388.5899,49.1878 383.4225,58.3364 C389.1656,65.3002 384.8882,72.6214 376.9515,73.8959 C374.8116,79.3357 370.8219,80.8545 366.1207,76.8257 C362.9415,82.4343 358.5858,83.1676 354.0572,78.3935 C352.5309,84.5172 348.476,87.218 342.7206,83.0535 C337.5438,87.0921 333.8058,84.8609 332.6306,78.9822 C327.2901,83.4137 322.7708,83.0304 319.9358,76.1662 C315.8968,79.7483 311.7822,78.4629 310.1123,73.4564 C301.5253,69.8008 300.7721,62.9379 306.9753,56.5397 C300.7384,50.7331 301.2324,46.2837 309.3988,43.0681 " fill="#FEFECE" filter="url(#fxi27nn0p9192)" style="stroke:#000000;stroke-width:1.5;"/><text fill="#000000" font-family="sans-serif" font-size="14" lengthAdjust="spacing" textLength="54" x="315" y="61.7773">Internet</text><!--MD5=[0ba5ee7700168656dc1b457c6fe9fdac]
entity Client--><ellipse cx="616" cy="25.2422" fill="#FEFECE" filter="url(#fxi27nn0p9192)" rx="8" ry="8" style="stroke:#A80036;stroke-width:1.5;"/><path d="M616,33.2422 L616,60.2422 M603,41.2422 L629,41.2422 M616,60.2422 L603,75.2422 M616,60.2422 L629,75.2422 " fill="none" filter="url(#fxi27nn0p9192)" style="stroke:#A80036;stroke-width:1.5;"/><text fill="#000000" font-family="sans-serif" font-size="14" lengthAdjust="spacing" textLength="40" x="596" y="94.2773">Client</text><!--MD5=[fe04fe644b726054c6b3f30615c5776e]
reverse link WifiRouter to Capteur1--><path d="M169.84,68.7422 C136.64,78.8722 94.09,96.8022 67,126.7422 C51.41,143.9722 44.15,169.9422 40.8,188.6322 " fill="none" id="WifiRouter-backto-Capteur1" style="stroke:#A80036;stroke-width:1.0;"/><polygon fill="#A80036" points="174.67,67.3122,164.9019,66.0536,169.8789,68.7424,167.1902,73.7194,174.67,67.3122" style="stroke:#A80036;stroke-width:1.0;"/><text fill="#000000" font-family="sans-serif" font-size="13" lengthAdjust="spacing" textLength="107" x="84" y="140.3105">Envoie messages</text><text fill="#000000" font-family="sans-serif" font-size="13" lengthAdjust="spacing" textLength="139" x="68" y="155.6211">au module d'affichage</text><!--MD5=[485394664ba746b817821460e4c91f50]
reverse link WifiRouter to CapteurX--><path d="M218,72.4822 C216.82,92.3422 215.13,128.1422 216,158.7422 C216.28,168.5122 216.84,179.2722 217.4,188.5322 " fill="none" id="WifiRouter-backto-CapteurX" style="stroke:#A80036;stroke-width:1.0;"/><polygon fill="#A80036" points="218.32,67.3222,213.7882,76.0665,218.0205,72.3132,221.7738,76.5456,218.32,67.3222" style="stroke:#A80036;stroke-width:1.0;"/><text fill="#000000" font-family="sans-serif" font-size="13" lengthAdjust="spacing" textLength="107" x="233" y="140.3105">Envoie messages</text><text fill="#000000" font-family="sans-serif" font-size="13" lengthAdjust="spacing" textLength="139" x="217" y="155.6211">au module d'affichage</text><!--MD5=[6477559aa74156c3260ff2899fb46b1f]
reverse link WifiRouter to ModuleAffichage--><path d="M237.94,70.2222 C250.4,78.4422 267.27,88.9422 283,96.7422 C316.28,113.2322 333.92,101.3222 361,126.7422 C378.75,143.4122 389.09,169.7322 394.61,188.6622 " fill="none" id="WifiRouter-backto-ModuleAffichage" style="stroke:#A80036;stroke-width:1.0;"/><polygon fill="#A80036" points="233.55,67.3122,238.8395,75.6201,237.7168,70.0758,243.2612,68.9532,233.55,67.3122" style="stroke:#A80036;stroke-width:1.0;"/><text fill="#000000" font-family="sans-serif" font-size="13" lengthAdjust="spacing" textLength="179" x="383" y="140.3105">recoit message des capteurs</text><text fill="#000000" font-family="sans-serif" font-size="13" lengthAdjust="spacing" textLength="163" x="391" y="155.6211">Envoie alarme par courriel</text><!--MD5=[d399f724ec74697f9e9a16f755b731c4]
link WifiRouter to Internet--><path d="M264.64,56.2422 C274.68,56.2422 284.72,56.2422 294.75,56.2422 " fill="none" id="WifiRouter-to-Internet" style="stroke:#A80036;stroke-width:1.0;"/><polygon fill="#A80036" points="300,56.2422,291,52.2422,295,56.2422,291,60.2422,300,56.2422" style="stroke:#A80036;stroke-width:1.0;"/><!--MD5=[476ac5bde6d299cc30c0fd288b4fb977]
link Internet to Client--><path d="M384.21,56.2422 C441.89,56.2422 543.52,56.2422 590.66,56.2422 " fill="none" id="Internet-to-Client" style="stroke:#A80036;stroke-width:1.0;"/><polygon fill="#A80036" points="595.87,56.2422,586.87,52.2422,590.87,56.2422,586.87,60.2422,595.87,56.2422" style="stroke:#A80036;stroke-width:1.0;"/><text fill="#000000" font-family="sans-serif" font-size="13" lengthAdjust="spacing" textLength="97" x="441.5" y="19.8105">courriel ou SMS</text><text fill="#000000" font-family="sans-serif" font-size="13" lengthAdjust="spacing" textLength="175" x="402.5" y="35.1211">de votre module d'affichage</text><text fill="#000000" font-family="sans-serif" font-size="13" lengthAdjust="spacing" textLength="98" x="441" y="50.4316">ou d'un capteur</text><!--MD5=[160a35f41babe92124200072ed7e979c]
@startuml moduleAffichage
control Capteur1
control CapteurX
control ModuleAffichage
card  WifiRouter
cloud Internet
Actor Client
Capteur1 -u-> WifiRouter: Envoie messages\nau module d'affichage
CapteurX -u-> WifiRouter: Envoie messages\nau module d'affichage
ModuleAffichage -u-> WifiRouter: recoit message des capteurs\nEnvoie alarme par courriel
WifiRouter -> Internet
Internet -> Client: courriel ou SMS\nde votre module d'affichage\nou d'un capteur
@enduml

PlantUML version 1.2022.0(Tue Jan 11 11:16:42 EST 2022)
(GPL source distribution)
Java Runtime: Java(TM) SE Runtime Environment
JVM: Java HotSpot(TM) 64-Bit Server VM
Default Encoding: UTF-8
Language: fr
Country: CA
--></g></svg>