<?xml version="1.0" encoding="UTF-8" standalone="no"?><svg xmlns="http://www.w3.org/2000/svg" xmlns:xlink="http://www.w3.org/1999/xlink" contentScriptType="application/ecmascript" contentStyleType="text/css" height="484px" preserveAspectRatio="none" style="width:579px;height:484px;background:#FFFFFF;" version="1.1" viewBox="0 0 579 484" width="579px" zoomAndPan="magnify"><defs><filter height="300%" id="fvd7nq0it5qwr" width="300%" x="-1" y="-1"><feGaussianBlur result="blurOut" stdDeviation="2.0"/><feColorMatrix in="blurOut" result="blurOut2" type="matrix" values="0 0 0 0 0 0 0 0 0 0 0 0 0 0 0 0 0 0 .4 0"/><feOffset dx="4.0" dy="4.0" in="blurOut2" result="blurOut3"/><feBlend in="SourceGraphic" in2="blurOut3" mode="normal"/></filter></defs><g><!--MD5=[178a4b68636e04c18c9cc439d765be55]
entity Capteur1--><ellipse cx="38" cy="288" fill="#FEFECE" filter="url(#fvd7nq0it5qwr)" rx="12" ry="12" style="stroke:#A80036;stroke-width:1.5;"/><polygon fill="#A80036" points="34,276,40,271,38,276,40,281,34,276" style="stroke:#A80036;stroke-width:1.0;"/><text fill="#000000" font-family="sans-serif" font-size="14" lengthAdjust="spacing" textLength="64" x="6" y="317.5352">Capteur1</text><!--MD5=[888009439fc1e03cf0d9bb1d338b9481]
entity Capteur2--><ellipse cx="470" cy="23" fill="#FEFECE" filter="url(#fvd7nq0it5qwr)" rx="12" ry="12" style="stroke:#A80036;stroke-width:1.5;"/><polygon fill="#A80036" points="466,11,472,6,470,11,472,16,466,11" style="stroke:#A80036;stroke-width:1.0;"/><text fill="#000000" font-family="sans-serif" font-size="14" lengthAdjust="spacing" textLength="64" x="438" y="52.5352">Capteur2</text><!--MD5=[1de03d4435405bebeaef48d43ed77e13]
entity CapteurX--><ellipse cx="219" cy="288" fill="#FEFECE" filter="url(#fvd7nq0it5qwr)" rx="12" ry="12" style="stroke:#A80036;stroke-width:1.5;"/><polygon fill="#A80036" points="215,276,221,271,219,276,221,281,215,276" style="stroke:#A80036;stroke-width:1.0;"/><text fill="#000000" font-family="sans-serif" font-size="14" lengthAdjust="spacing" textLength="64" x="187" y="317.5352">CapteurX</text><!--MD5=[6387a1f68b0613af4941d5606c77def3]
entity ModuleAffichage--><ellipse cx="132" cy="148" fill="#FEFECE" filter="url(#fvd7nq0it5qwr)" rx="12" ry="12" style="stroke:#A80036;stroke-width:1.5;"/><polygon fill="#A80036" points="128,136,134,131,132,136,134,141,128,136" style="stroke:#A80036;stroke-width:1.0;"/><text fill="#000000" font-family="sans-serif" font-size="14" lengthAdjust="spacing" textLength="116" x="74" y="177.5352">ModuleAffichage</text><!--MD5=[05027421de670d3ab720ec7fd63faf2c]
entity ModuleGSM--><ellipse cx="470" cy="148" fill="#FEFECE" filter="url(#fvd7nq0it5qwr)" rx="12" ry="12" style="stroke:#A80036;stroke-width:1.5;"/><polygon fill="#A80036" points="466,136,472,131,470,136,472,141,466,136" style="stroke:#A80036;stroke-width:1.0;"/><text fill="#000000" font-family="sans-serif" font-size="14" lengthAdjust="spacing" textLength="81" x="429.5" y="177.5352">ModuleGSM</text><!--MD5=[8acfb39d3119a861be94e65042a106b5]
entity ReseauCellulaire--><path d="M406.8912,281.1137 C411.1722,275.05 415.7216,275.5622 419.524,281.6128 C423.5011,275.6634 428.8331,274.4269 433.5845,280.7238 C436.3816,275.0868 442.6041,274.4091 446.436,279.4821 C450.9321,273.6868 455.524,273.6903 459.1027,280.4106 C461.6878,273.6846 466.178,274.5073 470.4237,278.6866 C475.2756,271.2752 480.8432,271.5584 484.9714,279.3777 C487.9741,273.8157 493.7309,273.403 496.5555,279.5537 C500.7596,274.2122 506.3982,274.4983 509.824,280.4668 C514.5432,275.1239 518.9362,275.6693 521.6317,282.4395 C525.2692,277.2069 530.3745,276.3178 534.3209,282.0832 C543.1026,284.3789 546.1078,291.3329 539.0402,298.2541 C544.0678,304.9872 542.1868,309.4263 534.9452,312.6757 C530.8169,318.7212 526.6716,319.3048 522.0603,313.1874 C519.2399,318.442 513.0918,318.9482 509.5482,314.0816 C506.356,320.4111 501.3093,321.5776 496.2407,316.2179 C493.8001,321.7856 489.7606,323.9399 484.9684,318.662 C481.0842,324.4367 474.9901,324.2443 471.2378,318.5047 C467.5652,326.1016 461.2197,324.3191 457.4022,318.6559 C452.999,323.3119 449.4943,323.5826 446.4835,317.2699 C440.8453,323.283 436.2295,324.2338 432.0674,315.7973 C426.9093,322.3109 421.8459,321.4468 419.0013,313.6804 C414.3309,319.2693 411.0148,317.1977 407.8327,312.1218 C398.6548,311.3075 396.1781,304.5087 401.8554,297.5859 C395.7983,290.9864 398.1152,283.1785 406.8912,281.1137 " fill="#FEFECE" filter="url(#fvd7nq0it5qwr)" style="stroke:#000000;stroke-width:1.5;"/><text fill="#000000" font-family="sans-serif" font-size="14" lengthAdjust="spacing" textLength="114" x="413" y="301.5352">ReseauCellulaire</text><!--MD5=[0ba5ee7700168656dc1b457c6fe9fdac]
entity Client--><ellipse cx="470" cy="406.5" fill="#FEFECE" filter="url(#fvd7nq0it5qwr)" rx="8" ry="8" style="stroke:#A80036;stroke-width:1.5;"/><path d="M470,414.5 L470,441.5 M457,422.5 L483,422.5 M470,441.5 L457,456.5 M470,441.5 L483,456.5 " fill="none" filter="url(#fvd7nq0it5qwr)" style="stroke:#A80036;stroke-width:1.5;"/><text fill="#000000" font-family="sans-serif" font-size="14" lengthAdjust="spacing" textLength="40" x="450" y="475.5352">Client</text><!--MD5=[63c9d205adc8d25e2c27fd3121859947]
link Capteur2 to ModuleGSM--><path d="M470,55.14 C470,75.49 470,105.19 470,126.91 " fill="none" id="Capteur2-to-ModuleGSM" style="stroke:#A80036;stroke-width:1.0;"/><polygon fill="#A80036" points="470,131.97,474,122.97,470,126.97,466,122.97,470,131.97" style="stroke:#A80036;stroke-width:1.0;"/><text fill="#000000" font-family="sans-serif" font-size="13" lengthAdjust="spacing" textLength="100" x="471" y="98.5684">Envoie message</text><text fill="#000000" font-family="sans-serif" font-size="13" lengthAdjust="spacing" textLength="32" x="433.7" y="76.1877">1..20</text><text fill="#000000" font-family="sans-serif" font-size="13" lengthAdjust="spacing" textLength="8" x="460.975" y="121.436">1</text><!--MD5=[9e4772a815984fa04c335a5c19ba80ca]
reverse link ModuleAffichage to Capteur1--><path d="M69.24,176.77 C54.13,184.64 39.82,195.41 31,210 C19.82,228.5 23.67,253.55 29.04,271.65 " fill="none" id="ModuleAffichage-backto-Capteur1" style="stroke:#A80036;stroke-width:1.0;"/><polygon fill="#A80036" points="73.95,174.42,64.1107,174.8546,69.475,176.6503,67.6793,182.0146,73.95,174.42" style="stroke:#A80036;stroke-width:1.0;"/><text fill="#000000" font-family="sans-serif" font-size="13" lengthAdjust="spacing" textLength="107" x="48" y="223.5684">Envoie messages</text><text fill="#000000" font-family="sans-serif" font-size="13" lengthAdjust="spacing" textLength="139" x="32" y="238.8789">au module d'affichage</text><!--MD5=[873b0df78b9fa52c737f92feab6a252f]
reverse link ModuleAffichage to CapteurX--><path d="M159.41,184.07 C166.64,192.02 174.07,201.01 180,210 C192.87,229.52 203.6,253.97 210.53,271.63 " fill="none" id="ModuleAffichage-backto-CapteurX" style="stroke:#A80036;stroke-width:1.0;"/><polygon fill="#A80036" points="155.89,180.25,159.0508,189.5779,159.2796,183.9257,164.9318,184.1545,155.89,180.25" style="stroke:#A80036;stroke-width:1.0;"/><text fill="#000000" font-family="sans-serif" font-size="13" lengthAdjust="spacing" textLength="107" x="215" y="223.5684">Envoie messages</text><text fill="#000000" font-family="sans-serif" font-size="13" lengthAdjust="spacing" textLength="139" x="199" y="238.8789">au module d'affichage</text><!--MD5=[f4643c28eef761cbd143d9a45b5d7f99]
link ModuleAffichage to ModuleGSM--><path d="M190.1,156 C256.38,156 363.39,156 424.1,156 " fill="none" id="ModuleAffichage-to-ModuleGSM" style="stroke:#A80036;stroke-width:1.0;"/><polygon fill="#A80036" points="429.1,156,420.1,152,424.1,156,420.1,160,429.1,156" style="stroke:#A80036;stroke-width:1.0;"/><text fill="#000000" font-family="sans-serif" font-size="13" lengthAdjust="spacing" textLength="203" x="208.25" y="149.5684">envoie des alarmes par message</text><!--MD5=[7f65086be380848a224cc97fdf96402b]
link ModuleGSM to ReseauCellulaire--><path d="M470,180.1 C470,204.17 470,241.87 470,267.47 " fill="none" id="ModuleGSM-to-ReseauCellulaire" style="stroke:#A80036;stroke-width:1.0;"/><polygon fill="#A80036" points="470,272.74,474,263.74,470,267.74,466,263.74,470,272.74" style="stroke:#A80036;stroke-width:1.0;"/><!--MD5=[9ca95be30d480257e59b670f371a0616]
link ReseauCellulaire to Client--><path d="M470,319.1 C470,338.54 470,367.44 470,391.69 " fill="none" id="ReseauCellulaire-to-Client" style="stroke:#A80036;stroke-width:1.0;"/><polygon fill="#A80036" points="470,396.79,474,387.79,470,391.79,466,387.79,470,396.79" style="stroke:#A80036;stroke-width:1.0;"/><text fill="#000000" font-family="sans-serif" font-size="13" lengthAdjust="spacing" textLength="25" x="471" y="363.5684">SMS</text><!--MD5=[951a1a19700e228f4063ab0fbb7e3466]
@startuml moduleGSM
control Capteur1
control Capteur2
control CapteurX
control ModuleAffichage
control ModuleGSM
cloud ReseauCellulaire
Actor Client
Capteur2 "1..20" - -> "1" ModuleGSM: Envoie message 
Capteur1 -u-> ModuleAffichage: Envoie messages\nau module d'affichage
CapteurX -u-> ModuleAffichage: Envoie messages\nau module d'affichage
ModuleAffichage -r->  ModuleGSM: envoie des alarmes par message
ModuleGSM - -> ReseauCellulaire
ReseauCellulaire - ->Client: SMS
@enduml

PlantUML version 1.2022.0(Tue Jan 11 11:16:42 EST 2022)
(GPL source distribution)
Java Runtime: Java(TM) SE Runtime Environment
JVM: Java HotSpot(TM) 64-Bit Server VM
Default Encoding: UTF-8
Language: fr
Country: CA
--></g></svg>